<?xml version="1.0" encoding="utf-8"?>
<!-- Generator: Adobe Illustrator 26.0.2, SVG Export Plug-In . SVG Version: 6.00 Build 0)  -->
<svg version="1.1" id="Calque_1" xmlns="http://www.w3.org/2000/svg" x="0px"
     y="0px"
     viewBox="0 0 300.12 301.18" style="enable-background:new 0 0 826.12 301.18;" xml:space="preserve">
<style type="text/css">
	.st0{fill:#FFFFFF;}
	.st1{fill:#CF3339;}
	.st2{fill:#192A67;}
	.st3{fill:white;}
	.st4{fill:#FFD200;}
</style>
    <g>
	<g>
		<g>
			<path class="st4" d="M265.1,126.73V83.28c0-5.7-3.04-10.97-7.98-13.83L140.53,2.14c-4.94-2.85-11.03-2.85-15.96,0L98.34,17.28
				v200.08c0,5.44,1.76,9.88,5.28,13.32c3.52,3.47,8.03,5.19,13.55,5.19H79.51H66H28.33c5.53,0,10.04-1.72,13.55-5.19
				c3.52-3.44,5.28-7.88,5.28-13.32V46.83L7.98,69.45C3.04,72.3,0,77.57,0,83.28V217.9c0,5.7,3.04,10.97,7.98,13.83l116.59,67.31
				c4.94,2.85,11.03,2.85,15.96,0l116.59-67.31c4.94-2.85,7.98-8.12,7.98-13.83v-25.16c-19.84,21.85-47.91,38.59-81.66,42.63
				c-1.6,0.23-2.59,0.26-2.85,0.26c-26.27,1.84-48.67-12.57-48.67-57.13v-64.25c0-7.29-1.12-12.71-3.38-16.25
				c-2.25-3.54-5.1-5.8-8.53-6.76c-3.44-0.96-5.98-1.72-10.25-0.72c-3.9,0.92-5.49,2.02-8.71,3.95c8.3-5.9,15.68-10.36,25.58-12.73
				c9.89-2.36,19.04-2.68,27.42-0.96c8.39,1.72,15.32,5.8,20.81,12.23c5.48,6.43,8.23,15.88,8.23,28.32v58.43
				c0,26.99,21.93,41.41,44.23,37.86C247.17,203.54,263.42,169.68,265.1,126.73z"/>
		</g>
        <path class="st3" d="M180.59,235.64c-0.05,0-0.08,0-0.08,0c0.31-0.03,0.61-0.05,0.91-0.08c0.71-0.08,1.41-0.16,2.12-0.25
			c0.81-0.12,1.79-0.26,2.92-0.44c8.19-1.52,23.76-5.66,39.94-16.59c0.31-0.21,0.61-0.43,0.92-0.65
			c-22.3,3.55-44.23-10.87-44.23-37.86v-58.43c0-12.44-2.75-21.89-8.23-28.32c-5.48-6.44-12.42-10.52-20.81-12.23
			c-8.39-1.72-17.53-1.39-27.42,0.96c-9.9,2.36-17.28,6.82-25.58,12.73c3.22-1.93,4.81-3.03,8.71-3.95c4.28-1,6.81-0.25,10.25,0.72
			c3.43,0.96,6.27,3.22,8.53,6.76c2.26,3.54,3.38,8.96,3.38,16.25v64.25C131.92,223.07,154.33,237.48,180.59,235.64z"/>
	</g>
</g>
</svg>
