<svg id="Calque_1" data-name="Calque 1" xmlns="http://www.w3.org/2000/svg" viewBox="0 0 826.12 301.18"><defs><style>.cls-1{fill:#fff;}.cls-2{fill:#cf3339;}.cls-3{fill:#192A67;}.cls-4{fill:#ffd200;}</style></defs><rect class="cls-1" x="549.94" y="267.41" width="23.46" height="10.75"/><path class="cls-2" d="M635.07,315.81H615.53V305.06h19.54A3.93,3.93,0,0,1,639,309v2.89a3.93,3.93,0,0,1-3.93,3.93" transform="translate(-42.14 -37.65)"/><path class="cls-3" d="M572.54,305.06h19.54v10.75H572.54a3.93,3.93,0,0,1-3.93-3.93V309a3.93,3.93,0,0,1,3.93-3.93" transform="translate(-42.14 -37.65)"/><path class="cls-1" d="M603.8,187.33h0Z" transform="translate(-42.14 -37.65)"/><path class="cls-1" d="M399.51,183.07V163.76c0-16.53-12.2-22.39-22.65-22.39-7.48,0-13.18,3.14-17.42,9.59V113.39H339.36v2.2l2.93.14c4.64.26,5.61.31,5.61,17.15v50.19c0,16.85-1,16.9-5.61,17.15l-2.93.15v2.2H368v-2.2l-2.93-.15c-4.65-.25-5.62-.3-5.62-17.15V154.78c2.52-4.59,7.22-10,15.32-10,8.52,0,13.21,6.74,13.21,19v19.31c0,16.85-1,16.9-5.6,17.15l-2.94.15v2.2h28.62v-2.2l-2.93-.15c-4.64-.25-5.61-.3-5.61-17.15" transform="translate(-42.14 -37.65)"/><path class="cls-1" d="M441.76,141.37c-13.62,0-28.17,8.29-28.17,31.59a32.88,32.88,0,0,0,7.65,21.62c5.49,6.34,13.27,9.7,22.49,9.7,13.52,0,22-6,24.62-17.46l.06-.32L466,186l-.08.31c-2.29,9.69-8.86,14.6-19.53,14.6-13.13,0-19.51-9.48-19.51-29V169.6h41.64v-.33c0-18-9.49-27.9-26.72-27.9m13.74,26H426.84c.15-12.33,2.11-23.67,14.92-23.67,12.18,0,13.7,13.41,13.74,23.67" transform="translate(-42.14 -37.65)"/><path class="cls-1" d="M520.72,187.23l-11.18-16.9,7.36-10.45c7.39-10.25,11.77-14.07,16.73-14.59l1.46-.16V143h-21v2.19l2.14.15a2.69,2.69,0,0,1,2.5,1.46c1.15,2.39-.6,7.39-4.45,12.75l-6.17,8.82L501,157.54c-4-6-5.38-9.28-4.57-10.9.42-.82,1.49-1.26,3.28-1.35l2.66-.14V143H473.89v2.17l1.2.17c4.78.64,7.39,3.08,14,13l10.79,16.24-7.89,11c-7.67,10.64-11.71,14.21-16.6,14.71l-1.46.17v2.18h21v-2.19l-2-.16a3,3,0,0,1-2.78-1.67c-1.14-2.47.57-7.32,4.46-12.66l6.69-9.22L508.75,188c3.58,5.34,5,9.29,4.15,11.08a2.38,2.38,0,0,1-2.19,1.16l-2.67.15v2.2h28.49v-2.18l-1.46-.17c-4.71-.53-8.19-3.69-14.35-13" transform="translate(-42.14 -37.65)"/><path class="cls-1" d="M591.58,183.07V162.31c0-14.47-13-20.94-25.8-20.94-12.37,0-20.69,4.93-20.69,12.28,0,4,3,6.88,7.28,6.88a6.82,6.82,0,0,0,6.9-6.88,9.24,9.24,0,0,0-1.66-5.12,4.26,4.26,0,0,1-.84-2c0-1.86,3.16-2.83,9.14-2.83,9.24,0,14.13,4.74,14.13,13.73v15.81a35.91,35.91,0,0,0-15.44-3c-16.17,0-24.37,5.59-24.37,16.61,0,10.41,8.58,17.14,21.87,17.14,7.93,0,13.89-3.19,18.2-9.72v8.27h19.82v-2.2l-2.93-.15c-4.64-.24-5.61-.3-5.61-17.15M580,175.66v15.09c-2.88,5.81-8.78,9.87-14.39,9.87-8.33,0-12.56-4.4-12.56-13.08,0-9.9,4.54-14.92,13.47-14.92a31.36,31.36,0,0,1,13.48,3" transform="translate(-42.14 -37.65)"/><path class="cls-1" d="M617.36,150c-6.8,5.32-10.38,13.4-10.38,23.37,0,18.14,13.36,30.79,32.5,30.79a42.59,42.59,0,0,0,11.11-1.47v.63c0,16.43-2.61,24.25-17.42,24.25-8.29,0-11.37-2.46-11.37-4a5.32,5.32,0,0,1,1-2.79,8.5,8.5,0,0,0,1.4-4.7,7,7,0,1,0-14,.13c0,6.59,8.81,13.72,23,13.72,19.22,0,29-9,29-26.6V162.44c0-16.84,1-16.9,5.6-17.15l2.94-.14V143H640.13c-8.9,0-17,2.49-22.77,7M640,145.29h10.59v54.87a39,39,0,0,1-11.11,1.64c-12.69,0-19.13-9.57-19.13-28.45,0-12.94,5.15-28.06,19.65-28.06" transform="translate(-42.14 -37.65)"/><path class="cls-1" d="M705.29,141.37c-19.7,0-30,15.76-30,31.32a33.16,33.16,0,0,0,7.88,22c5.53,6.3,13.19,9.63,22.13,9.63,19.79,0,30.14-15.83,30.14-31.45s-10.35-31.46-30.14-31.46m0,60.56c-11.35,0-16.63-9.25-16.63-29.1,0-20.14,5.13-29.11,16.63-29.11S721.92,153,721.92,173s-5.13,29-16.63,29" transform="translate(-42.14 -37.65)"/><path class="cls-1" d="M801.78,183.07V163.76c0-7.17-2.49-13-7.18-16.93-4.19-3.49-9.91-5.33-16.53-5.33-10.22,0-15.35,5.32-18.33,9.75V143H739.92v2.19l2.93.15c4.64.25,5.61.31,5.61,17.15v20.63c0,16.85-1,16.9-5.61,17.15l-2.93.15v2.2h28.62v-2.2l-2.93-.15c-4.64-.25-5.61-.3-5.61-17.15V154.78c3.67-6.56,9-9.88,16-9.88,9.2,0,14.26,6.7,14.26,18.86v19.31c0,16.85-1,16.9-5.6,17.15l-2.93.15v2.2h28.61v-2.2l-2.92-.15c-4.65-.25-5.61-.3-5.61-17.15" transform="translate(-42.14 -37.65)"/><path class="cls-1" d="M868.25,169.6v-.33c0-18-9.49-27.9-26.72-27.9-13.62,0-28.18,8.29-28.18,31.59A32.83,32.83,0,0,0,821,194.58c5.49,6.34,13.27,9.7,22.49,9.7,13.51,0,22-6,24.61-17.46l.07-.32-2.46-.53-.07.31c-2.29,9.69-8.86,14.6-19.53,14.6-13.13,0-19.51-9.48-19.51-29V169.6Zm-13-2.22H826.61c.14-12.33,2.11-23.67,14.92-23.67,12.18,0,13.7,13.41,13.74,23.67" transform="translate(-42.14 -37.65)"/><path class="cls-1" d="M339,245.66H355.7v3.08H342.51v7.7h11.28v3.05H342.51v8.41h13.3V271H339Zm10.11-8.16h3.69l-4.4,5.85h-2.55Z" transform="translate(-42.14 -37.65)"/><path class="cls-1" d="M359.71,264.17v-3.83c0-4.86,3.33-7.62,7.69-7.62,4.05,0,7.34,2.3,7.34,6.49v.42h-3.12v-.53c0-2.13-1.63-3.69-4.18-3.69S363,257.08,363,260v4.25a4.1,4.1,0,0,0,4.47,4.47c2.55,0,4.11-1.52,4.11-3.69v-.39h3.12V265c0,4.15-3.19,6.49-7.23,6.49C363.08,271.44,359.71,268.85,359.71,264.17Z" transform="translate(-42.14 -37.65)"/><path class="cls-1" d="M378.61,264.46V260c0-4.79,3.65-7.3,7.66-7.3,4.39,0,7.76,2.69,7.76,7.23v4.15c0,4.75-3.61,7.34-7.66,7.34C382,271.44,378.61,269,378.61,264.46Zm12.16-.15v-4.64c0-2.52-1.63-4.22-4.5-4.22-2.56,0-4.44,1.45-4.44,4.36v4.61c0,2.59,1.71,4.29,4.54,4.29C389,268.71,390.77,267.33,390.77,264.31Z" transform="translate(-42.14 -37.65)"/><path class="cls-1" d="M399.24,266.44V245.69h3.23v20.82a1.81,1.81,0,0,0,2.06,1.95,17,17,0,0,0,2-.14v2.45a12.33,12.33,0,0,1-3.05.42C399.74,271.19,399.24,268.36,399.24,266.44Z" transform="translate(-42.14 -37.65)"/><path class="cls-1" d="M410.06,264.14v-3.69c0-5,3.51-7.73,7.87-7.73,3.94,0,7.31,2.34,7.31,7v3.05H413.39v1.56c0,2.69,1.95,4.36,4.79,4.36a5.45,5.45,0,0,0,4.33-2.3l2.44,1.45a7.63,7.63,0,0,1-6.95,3.58C413.61,271.44,410.06,269.07,410.06,264.14Zm12-3.59v-.85a4,4,0,0,0-4.22-4.29,4.28,4.28,0,0,0-4.44,4.54v.6Z" transform="translate(-42.14 -37.65)"/><path class="cls-1" d="M438.71,265.27l3.16-1.2c1,2.73,3.47,4.29,6.7,4.29s5.67-1.42,5.67-4.15c0-2.41-1.63-3.44-3.75-4.08l-4.61-1.24c-3.48-1-5.75-2.7-5.75-6.6,0-4.36,3.65-7.06,8.33-7.06,4,0,7.49,1.56,8.73,5l-3,1.21c-1.06-2.16-3.05-3.26-5.78-3.26-2.41,0-4.86,1.17-4.86,3.83,0,1.91,1.39,3.12,4.05,3.86l4.64,1.28c3,.78,5.43,2.59,5.43,6.77,0,4.44-3.76,7.49-9.22,7.49C443.82,271.41,439.92,269.35,438.71,265.27Z" transform="translate(-42.14 -37.65)"/><path class="cls-1" d="M462.47,265.13V253.07h3.23v11c0,3,1.42,4.43,3.72,4.43,2.59,0,4.58-1.84,4.58-5.1V253.07h3.19V271H474.1v-2.8H474a6.35,6.35,0,0,1-5.6,3.19C464.53,271.37,462.47,268.82,462.47,265.13Z" transform="translate(-42.14 -37.65)"/><path class="cls-1" d="M483.14,253.07h3.09v2.63h.07a6.48,6.48,0,0,1,5.43-3c3.86,0,6.7,2.41,6.7,6.6v5.1c0,4.83-3.33,7.06-7,7.06a5.49,5.49,0,0,1-5-2.94h-.1v9.36h-3.2Zm12,11.53v-5.25c0-2.31-1.74-3.9-4.33-3.9a4.55,4.55,0,0,0-4.5,4.79v3.93a4.4,4.4,0,0,0,4.57,4.54A4,4,0,0,0,495.17,264.6Z" transform="translate(-42.14 -37.65)"/><path class="cls-1" d="M502.82,264.14v-3.69c0-5,3.52-7.73,7.88-7.73,3.93,0,7.3,2.34,7.3,7v3.05H506.16v1.56c0,2.69,1.95,4.36,4.79,4.36a5.44,5.44,0,0,0,4.32-2.3l2.45,1.45a7.65,7.65,0,0,1-7,3.58C506.37,271.44,502.82,269.07,502.82,264.14Zm12-3.59v-.85a4,4,0,0,0-4.22-4.29,4.27,4.27,0,0,0-4.43,4.54v.6Zm-2.13-16.24h3.69l-4.4,5.85h-2.55Z" transform="translate(-42.14 -37.65)"/><path class="cls-1" d="M523,253.07h3.12v3.37h.07a7.08,7.08,0,0,1,6.24-3.69,8.11,8.11,0,0,1,1.35.11v3a8.33,8.33,0,0,0-1.63-.11c-3.34,0-5.89,2-5.93,5.68V271H523Z" transform="translate(-42.14 -37.65)"/><path class="cls-1" d="M538,245.73h3.19v4.11H538Zm0,7.34h3.19V271H538Z" transform="translate(-42.14 -37.65)"/><path class="cls-1" d="M546.37,264.14v-3.69c0-5,3.51-7.73,7.87-7.73,3.94,0,7.31,2.34,7.31,7v3.05H549.7v1.56c0,2.69,1.95,4.36,4.79,4.36a5.45,5.45,0,0,0,4.33-2.3l2.44,1.45a7.63,7.63,0,0,1-7,3.58C549.92,271.44,546.37,269.07,546.37,264.14Zm12-3.59v-.85a4,4,0,0,0-4.22-4.29A4.28,4.28,0,0,0,549.7,260v.6Z" transform="translate(-42.14 -37.65)"/><path class="cls-1" d="M566.55,265.13V253.07h3.22v11c0,3,1.42,4.43,3.73,4.43,2.58,0,4.57-1.84,4.57-5.1V253.07h3.19V271h-3.08v-2.8h-.07a6.36,6.36,0,0,1-5.61,3.19C568.6,271.37,566.55,268.82,566.55,265.13Z" transform="translate(-42.14 -37.65)"/><path class="cls-1" d="M587,253.07h3.12v3.37h.07a7.1,7.1,0,0,1,6.24-3.69,8,8,0,0,1,1.35.11v3a8.28,8.28,0,0,0-1.63-.11c-3.33,0-5.89,2-5.92,5.68V271H587Z" transform="translate(-42.14 -37.65)"/><path class="cls-1" d="M601.12,264.14v-3.69c0-5,3.51-7.73,7.87-7.73,3.94,0,7.31,2.34,7.31,7v3.05H604.45v1.56c0,2.69,1.95,4.36,4.79,4.36a5.45,5.45,0,0,0,4.33-2.3l2.44,1.45a7.63,7.63,0,0,1-7,3.58C604.67,271.44,601.12,269.07,601.12,264.14Zm12-3.59v-.85a4,4,0,0,0-4.22-4.29,4.28,4.28,0,0,0-4.44,4.54v.6Z" transform="translate(-42.14 -37.65)"/><path class="cls-1" d="M630.37,264.81V259.7c0-4.82,3.34-7,7-7a5.51,5.51,0,0,1,5,2.91h.11v-9.9h3.19V271h-3.12v-2.77h0a6.59,6.59,0,0,1-5.42,3.23C633.21,271.44,630.37,269,630.37,264.81Zm12.1-.92v-4a4.41,4.41,0,0,0-4.61-4.54,4,4,0,0,0-4.26,4.11v5.25c0,2.3,1.74,3.9,4.36,3.9A4.52,4.52,0,0,0,642.47,263.89Z" transform="translate(-42.14 -37.65)"/><path class="cls-1" d="M653,250h-1.2v-4.47h3.47v4.32l-1.42,4.54h-1.74Z" transform="translate(-42.14 -37.65)"/><path class="cls-1" d="M661.51,245.69H665V271h-3.47Z" transform="translate(-42.14 -37.65)"/><path class="cls-1" d="M671.29,253.07h3.09v2.8h.07a6.39,6.39,0,0,1,5.64-3.19c3.86,0,5.92,2.52,5.92,6.21V271h-3.23V259.92c0-3-1.38-4.44-3.68-4.44-2.59,0-4.61,1.85-4.61,5.11V271h-3.2Z" transform="translate(-42.14 -37.65)"/><path class="cls-1" d="M693.21,255.59h-3v-2.52h3v-2.8c0-3.33,1.74-5.14,5-5.14a9.71,9.71,0,0,1,2,.21v2.77a8.51,8.51,0,0,0-1.71-.15,1.91,1.91,0,0,0-2.09,2.17v2.94h3.72v2.52H696.4V271h-3.19Z" transform="translate(-42.14 -37.65)"/><path class="cls-1" d="M703.46,264.46V260c0-4.79,3.65-7.3,7.66-7.3,4.39,0,7.76,2.69,7.76,7.23v4.15c0,4.75-3.61,7.34-7.66,7.34C706.86,271.44,703.46,269,703.46,264.46Zm12.16-.15v-4.64c0-2.52-1.63-4.22-4.5-4.22-2.56,0-4.44,1.45-4.44,4.36v4.61c0,2.59,1.71,4.29,4.54,4.29C713.81,268.71,715.62,267.33,715.62,264.31Z" transform="translate(-42.14 -37.65)"/><path class="cls-1" d="M723.92,253.07H727v3.37h.07a7.08,7.08,0,0,1,6.24-3.69,8.11,8.11,0,0,1,1.35.11v3a8.33,8.33,0,0,0-1.63-.11c-3.34,0-5.89,2-5.93,5.68V271h-3.22Z" transform="translate(-42.14 -37.65)"/><path class="cls-1" d="M738.81,253.07h3.09v2.77H742a6.33,6.33,0,0,1,5.64-3.16,5.17,5.17,0,0,1,5.07,3.26h0a6.84,6.84,0,0,1,6-3.26c3.4,0,5.92,2.09,5.92,5.89V271H761.4V259.92c0-2.84-1.2-4.44-3.69-4.44s-4.36,2.1-4.4,4.83V271h-3.19v-11.1c0-2.66-1.1-4.4-3.69-4.4a4.52,4.52,0,0,0-4.43,4.79V271h-3.19Z" transform="translate(-42.14 -37.65)"/><path class="cls-1" d="M769.52,266.09c0-3.76,3.4-5.46,6.63-5.46h5v-2.2c0-2.34-1.56-3.23-4-3.23-2,0-3.9.71-3.9,2.45v.6h-2.91v-.5c0-3.76,3.55-5.07,6.88-5.07,3.76,0,7.13,1.28,7.13,5.43v8.69a34,34,0,0,0,.29,4.18h-3.16c-.07-.46-.14-1.84-.18-2.23h-.07c-1.52,2.2-3.4,2.62-5.64,2.62C772.11,271.37,769.52,269.42,769.52,266.09Zm11.63-1.67V263h-4.5c-2.13,0-4,.6-4,2.91,0,1.95,1.64,2.91,3.76,2.91C779.94,268.82,781.15,266.94,781.15,264.42Z" transform="translate(-42.14 -37.65)"/><path class="cls-1" d="M791.19,267.08V255.66h-2.88v-2.59h2.88v-5.53h3.19v5.53H799v2.59h-4.61v10.6c0,1.64.85,2.13,2.23,2.13a11.15,11.15,0,0,0,2.48-.28v2.76a13.22,13.22,0,0,1-3.26.43C793.35,271.3,791.19,270.17,791.19,267.08Z" transform="translate(-42.14 -37.65)"/><path class="cls-1" d="M803.42,245.73h3.19v4.11h-3.19Zm0,7.34h3.19V271h-3.19Z" transform="translate(-42.14 -37.65)"/><path class="cls-1" d="M824,268.32h-.08a6.49,6.49,0,0,1-5.39,3.12c-3.86,0-6.7-2.45-6.7-6.63V259.7c0-4.82,3.34-7,7-7a5.59,5.59,0,0,1,5,2.91h.07V253h3.2v24.82H824Zm-.08-4.43v-4a4.41,4.41,0,0,0-4.61-4.54,4,4,0,0,0-4.25,4.11v5.25c0,2.3,1.74,3.9,4.36,3.9A4.52,4.52,0,0,0,823.91,263.89Z" transform="translate(-42.14 -37.65)"/><path class="cls-1" d="M833,265.13V253.07h3.23v11c0,3,1.42,4.43,3.72,4.43,2.59,0,4.58-1.84,4.58-5.1V253.07h3.19V271h-3.09v-2.8h-.07a6.35,6.35,0,0,1-5.6,3.19C835.05,271.37,833,268.82,833,265.13Z" transform="translate(-42.14 -37.65)"/><path class="cls-1" d="M852.81,264.14v-3.69c0-5,3.52-7.73,7.88-7.73,3.93,0,7.3,2.34,7.3,7v3.05H856.15v1.56c0,2.69,2,4.36,4.79,4.36a5.43,5.43,0,0,0,4.32-2.3l2.45,1.45a7.65,7.65,0,0,1-7,3.58C856.36,271.44,852.81,269.07,852.81,264.14Zm12-3.59v-.85a4,4,0,0,0-4.22-4.29,4.27,4.27,0,0,0-4.43,4.54v.6Z" transform="translate(-42.14 -37.65)"/><path class="cls-4" d="M307.24,164.38V120.93a16,16,0,0,0-8-13.83L182.67,39.79a16,16,0,0,0-16,0L140.48,54.93V255a17.83,17.83,0,0,0,5.27,13.32q5.28,5.19,13.56,5.18H70.47q8.3,0,13.55-5.18A17.84,17.84,0,0,0,89.3,255V84.48L50.12,107.1a16,16,0,0,0-8,13.83V255.55a16,16,0,0,0,8,13.83l116.59,67.31a16,16,0,0,0,16,0l116.59-67.31a16,16,0,0,0,8-13.83V230.39C287.4,252.25,259.33,269,225.58,273a22.26,22.26,0,0,1-2.85.26c-26.27,1.84-48.67-12.57-48.67-57.13V151.9q0-10.93-3.38-16.25a14.86,14.86,0,0,0-8.53-6.76c-3.43-1-6-1.71-10.25-.71-3.9.91-5.49,2-8.7,3.95,8.29-5.91,15.68-10.37,25.58-12.73s19-2.68,27.42-1A36.12,36.12,0,0,1,217,130.67q8.22,9.65,8.23,28.32v58.43c0,27,21.93,41.41,44.23,37.86C289.3,241.19,305.55,207.33,307.24,164.38Z" transform="translate(-42.14 -37.65)"/><path class="cls-1" d="M222.73,273.29h-.08l.92-.08,2.12-.25c.81-.11,1.79-.26,2.92-.44a108,108,0,0,0,39.94-16.59l.92-.65c-22.3,3.55-44.23-10.87-44.23-37.86V159q0-18.66-8.23-28.32a36.12,36.12,0,0,0-20.81-12.24q-12.58-2.57-27.42,1c-9.9,2.36-17.29,6.82-25.58,12.73,3.21-1.93,4.8-3,8.7-3.95,4.28-1,6.82-.25,10.25.71a14.86,14.86,0,0,1,8.53,6.76q3.39,5.31,3.38,16.25v64.26C174.06,260.72,196.46,275.13,222.73,273.29Z" transform="translate(-42.14 -37.65)"/></svg>