<?xml version="1.0" encoding="UTF-8"?>
<svg width="524px" height="279px" viewBox="0 0 524 279" version="1.1" xmlns="http://www.w3.org/2000/svg" xmlns:xlink="http://www.w3.org/1999/xlink">
    <!-- Generator: Sketch 52.6 (67491) - http://www.bohemiancoding.com/sketch -->
    <title>Group 56</title>
    <desc>Created with Sketch.</desc>
    <defs>
        <polygon id="path-1" points="0 0.298024521 66.8158175 0.298024521 66.8158175 110.622513 0 110.622513"></polygon>
        <polygon id="path-3" points="0 305.744433 525.867366 305.744433 525.867366 0 0 0"></polygon>
    </defs>
    <g id="001-Page-campus" stroke="none" stroke-width="1" fill="none" fill-rule="evenodd">
        <g id="Hexagone---Desktop---Campus-slide-007-last" transform="translate(-125.000000, -571.000000)">
            <g id="Slide-3">
                <g id="Group-5" transform="translate(125.000000, 196.000000)">
                    <g id="Group-56" transform="translate(0.000000, 375.000000)">
                        <path d="M56.171472,191.844603 C54.255653,190.132137 51.9974806,188.727937 50.5634504,186.59557 C47.1314138,181.49047 49.1067478,173.336703 44.1386552,169.707203 C40.7275905,167.214437 35.594556,168.291103 32.2435733,165.718437 C29.5483901,163.64897 28.8330754,159.845503 26.4921487,157.383337 C23.0306379,153.742503 17.2469052,154.029803 12.2544397,154.585703 C9.42548922,154.90077 6.59880603,155.23397 3.76872198,155.530337 C2.01331034,155.714503 -0.987383621,155.47707 0.595150862,158.11547 C2.84992241,161.871903 5.63012716,163.474437 6.20940733,168.05707 C6.90318319,173.543537 6.81192672,179.81767 10.869722,183.575237 C14.9320517,187.33677 21.5365259,186.890803 25.9179698,190.27437 C33.6056185,196.214737 29.826694,209.13757 35.1870194,217.238637 C37.7841444,221.16337 42.5629224,223.537137 47.2606466,223.235103 C56.0677457,222.668437 60.9451487,221.332803 62.6081703,211.868337 C63.867056,204.70907 61.6723664,196.762137 56.171472,191.844603" id="Fill-1" fill="#310046"></path>
                        <g id="Group-5" transform="translate(0.000000, 155.011100)">
                            <mask id="mask-2" fill="white">
                                <use xlink:href="#path-1"></use>
                            </mask>
                            <g id="Clip-4"></g>
                            <path d="M66.1072606,110.622513 C66.0987584,110.622513 66.0896894,110.621947 66.0806205,110.621947 C65.6946226,110.60778 65.3936463,110.282513 65.4078166,109.89718 C65.4140515,109.72888 65.9406183,92.8280467 58.2013899,71.1292467 C51.064114,51.1202467 35.2319675,22.81468 0.336288578,1.59528 C0.00583814655,1.39411333 -0.0990217672,0.964013333 0.102195905,0.634213333 C0.302846767,0.303846667 0.733622629,0.19958 1.06293944,0.399613333 C16.6343532,9.86861333 29.7803856,21.5170133 40.1371442,35.02068 C48.4244782,45.8264467 54.9518662,57.8375133 59.5401959,70.7184133 C67.3536765,92.6586133 66.8123726,109.779313 66.8055709,109.94988 C66.7919675,110.326713 66.4813554,110.622513 66.1072606,110.622513" id="Fill-3" fill="#DCDDDC" mask="url(#mask-2)"></path>
                        </g>
                        <path d="M83.5222817,114.6922 C86.4872666,119.001133 88.9647946,124.867267 86.0536567,129.2136 C84.4603528,131.592467 81.5242752,132.947367 80.3328399,135.551767 C79.2077213,138.0111 79.9598787,140.920367 81.1076696,143.370633 C82.8982235,147.1928 85.6047429,150.5758 87.0024972,154.559467 C88.3996847,158.541433 88.0834045,163.6267 84.7035144,166.1563 C83.9394541,166.728067 83.0546631,167.1423 82.3722235,167.808133 C79.8074067,170.3111 81.3054864,174.539567 81.4817644,178.118633 C81.7056545,182.658767 79.2332278,187.231767 75.3109002,189.530733 C72.5754735,191.1344 69.0317752,191.881267 67.4622774,194.635833 C67.1573334,190.840867 62.5911093,189.077967 60.4961782,185.897833 C58.4312881,182.764167 59.0100015,178.608233 60.0999778,175.017267 C61.1893873,171.426867 62.7311114,167.808133 62.3496481,164.074933 C61.9772537,160.440333 59.8386782,157.274933 58.0594606,154.0829 C55.6278442,149.720133 53.7505683,144.9199 53.6179347,139.927567 C53.4864347,134.9358 55.30873,129.722467 59.1970489,126.587667 C60.9671976,125.161367 63.0814002,124.211067 64.857217,122.791 C66.6330338,121.3715 68.1095748,119.237433 67.8210683,116.9821 C67.6073808,115.313267 66.4765942,113.903967 66.0310812,112.282167 C65.1973032,109.249933 66.9634843,105.983667 69.4874907,104.106867 C70.9056502,103.053433 73.4920058,101.478667 75.3194024,101.446933 C78.2611481,101.3965 77.0595101,101.553467 77.8808183,104.3477 C79.0246416,108.239 81.2437041,111.381733 83.5222817,114.6922" id="Fill-6" fill="#310046"></path>
                        <path d="M66.4598166,253.399337 C66.0772196,253.399337 65.7649071,253.091637 65.7609394,252.708003 C65.7467692,251.550303 64.5383295,136.560037 75.9878985,101.91857 C76.1091959,101.551937 76.5036959,101.35417 76.8715558,101.473737 C77.2388489,101.595003 77.4372325,101.991103 77.3165019,102.357737 C65.9394847,136.77877 67.1456571,251.536137 67.1592606,252.69157 C67.163795,253.078037 66.8543166,253.394237 66.4683187,253.399337 L66.4598166,253.399337 Z" id="Fill-8" fill="#DCDDDC"></path>
                        <path d="M80.1590558,201.925093 C79.3853597,197.65016 79.7447175,193.01086 82.05617,189.331493 C84.7451183,185.052027 89.9422024,182.12916 90.7164653,177.13456 C91.0174416,175.192593 90.5713619,173.217193 90.5792972,171.251427 C90.6002692,165.87886 94.4069675,160.73296 99.5394351,159.139493 C101.099864,158.654993 102.761752,158.467427 104.234892,157.760227 C107.449273,156.217193 109.05108,152.617727 111.590957,150.115893 C114.899995,146.85586 119.767196,145.57916 124.41164,145.681727 C129.056651,145.783727 133.575263,147.116527 138.029258,148.439127 C138.803521,148.670327 139.666207,148.973493 140.000625,149.70846 C140.206944,150.161793 140.161032,150.688227 140.068075,151.177827 C139.143041,156.063627 134.36483,159.159893 129.837148,161.218027 C125.308901,163.27616 120.274491,165.138793 117.567972,169.310593 C113.179726,176.07546 116.765935,186.089027 111.809179,192.448727 C108.075599,197.239893 100.487142,198.43216 98.0158489,203.980393 C96.4463511,207.503927 96.9111356,212.648127 93.3328619,214.08916 C84.5365321,217.632527 81.3827994,208.685993 80.1590558,201.925093" id="Fill-10" fill="#310046"></path>
                        <path d="M72.1547869,251.743083 C72.1196446,251.743083 72.0839356,251.74025 72.0487933,251.73515 C71.6667631,251.67735 71.40433,251.32035 71.4621446,250.938417 C71.4961532,250.717417 74.9514291,228.54545 85.0298838,205.052017 C90.95872,191.23385 97.9866015,179.65855 105.919679,170.650817 C115.871735,159.349783 127.282761,152.074917 139.83591,149.028517 C140.210571,148.935583 140.589767,149.16735 140.680457,149.54305 C140.77228,149.91875 140.541022,150.297283 140.165793,150.38795 C112.347875,157.139217 95.5340131,184.12615 86.3273127,205.576183 C76.3129075,228.90925 72.8786037,250.92935 72.8457287,251.149217 C72.7924485,251.49545 72.4943063,251.743083 72.1547869,251.743083" id="Fill-12" fill="#DCDDDC"></path>
                        <mask id="mask-4" fill="white">
                            <use xlink:href="#path-3"></use>
                        </mask>
                        <g id="Clip-15"></g>
                        <polygon id="Fill-14" fill="#FFD200" mask="url(#mask-4)" points="45.1934892 293.702767 87.229278 293.702767 87.229278 232.834267 45.1934892 232.834267"></polygon>
                        <polygon id="Fill-16" fill="#FFD200" mask="url(#mask-4)" points="393.185 304.8746 405.287534 304.8746 405.287534 187.164333 393.185 187.164333"></polygon>
                        <polygon id="Fill-17" fill="#EABD00" mask="url(#mask-4)" points="386.777209 304.8746 393.185 304.8746 393.185 187.164333 386.777209 187.164333"></polygon>
                        <path d="M254.748262,211.28892 L162.730003,211.28892 C160.13968,211.28892 158.039647,209.18942 158.039647,206.599753 C158.039647,204.00952 160.13968,201.91002 162.730003,201.91002 L254.748262,201.91002 C257.338585,201.91002 259.438617,204.00952 259.438617,206.599753 C259.438617,209.18942 257.338585,211.28892 254.748262,211.28892" id="Fill-18" fill="#DCDDDC" mask="url(#mask-4)"></path>
                        <path d="M245.645004,211.28892 L258.531437,299.577287 C258.935573,302.34432 257.139351,304.874487 254.772351,304.874487 L254.271858,304.874487 C252.471668,304.874487 250.91634,303.38302 250.540545,301.294287 L234.332603,211.28892 L245.645004,211.28892 Z" id="Fill-19" fill="#DCDDDC" mask="url(#mask-4)"></path>
                        <path d="M168.7951,211.28892 L155.739758,299.228787 C155.301613,302.17772 157.248607,304.874487 159.814557,304.874487 C161.766085,304.874487 163.451779,303.28442 163.859316,301.05912 L180.300784,211.28892 L168.7951,211.28892 Z" id="Fill-20" fill="#DCDDDC" mask="url(#mask-4)"></path>
                        <path d="M201.8788,211.28892 L193.940621,299.228787 C193.503044,302.17772 195.44947,304.874487 198.015987,304.874487 C199.967516,304.874487 201.653209,303.28442 202.060179,301.05912 L213.384483,211.28892 L201.8788,211.28892 Z" id="Fill-21" fill="#DCDDDC" mask="url(#mask-4)"></path>
                        <path d="M258.069537,215.129856 C249.900505,210.888646 241.012864,207.586551 232.109957,205.155089 C228.991186,204.303326 226.109083,203.625307 223.549847,203.106289 C222.679839,202.929849 221.921203,202.787031 221.284597,202.675829 C220.945069,202.616521 220.748102,202.584616 220.704296,202.578042 C212.200093,201.301797 206.339693,193.366624 207.614726,184.854337 C208.889758,176.342051 216.817396,170.47608 225.321599,171.752325 C225.607681,171.795258 226.049873,171.866883 226.638157,171.969645 C227.547903,172.128559 228.583035,172.323428 229.733595,172.556764 C232.947408,173.208533 236.498131,174.043845 240.307019,175.084085 C251.197423,178.05835 262.103093,182.110219 272.407819,187.460242 C282.399251,192.64761 291.315759,198.809775 298.848241,206.096609 C304.35501,211.423125 305.493392,218.162195 304.225611,225.057776 C303.525951,228.86329 302.047934,232.799849 299.883641,237.16506 C296.618659,243.750277 291.643339,251.540981 285.214142,260.463951 C283.334487,263.072691 281.344634,265.756964 279.25795,268.504753 C274.242529,275.109163 268.893108,281.790749 263.546073,288.227702 C261.675792,290.479213 259.937276,292.541881 258.373392,294.374056 C257.822566,295.019379 257.331716,295.591158 256.906222,296.084153 C256.6452,296.386584 256.460403,296.59962 256.357221,296.718005 C250.704094,303.204083 240.868317,303.874966 234.3884,298.216465 C227.908482,292.557964 227.238236,282.712838 232.891363,276.226761 C232.961915,276.145814 233.113727,275.970804 233.341331,275.707093 C233.730213,275.256517 234.18404,274.727866 234.697332,274.126516 C236.173788,272.396768 237.823078,270.439962 239.601204,268.299391 C244.678187,262.187536 249.752786,255.849212 254.46645,249.642161 C256.400895,247.094842 258.236235,244.619005 259.956895,242.230931 C265.291245,234.827481 269.354637,228.49619 271.748962,223.786849 C267.699198,220.636452 263.112615,217.74813 258.069537,215.129856 Z" id="Stroke-22" fill="#310046" mask="url(#mask-4)"></path>
                        <path d="M219.995682,208.358593 C209.041138,203.228057 197.181067,201.816712 187.482842,202.525235 C186.853974,202.571178 186.498533,202.608283 186.44988,202.614749 C177.925424,203.747559 170.097534,197.748878 168.965799,189.216318 C167.834065,180.683759 173.827049,172.848429 182.351506,171.715618 C182.994138,171.630219 183.958702,171.529527 185.215988,171.437673 C190.606331,171.043871 196.965555,171.112496 203.964255,171.945339 C213.960319,173.134868 223.827928,175.739799 233.193241,180.126023 C241.349035,183.94577 248.834534,188.99834 255.444888,195.392968 C260.122004,199.917567 261.704041,205.477371 261.783331,211.833716 C261.830384,215.605825 261.295166,219.781282 260.278233,224.530767 C258.679968,231.995308 255.838371,241.051541 251.976424,251.494329 C250.673796,255.016664 249.267665,258.659804 247.772953,262.399367 C244.872435,269.656062 241.774826,276.942921 238.677524,283.920469 C237.593163,286.363297 236.584979,288.595883 235.677917,290.574744 C235.358312,291.271999 235.073459,291.889245 234.826485,292.421018 C234.674865,292.747479 234.56743,292.97742 234.507313,293.105364 C230.847498,300.894337 221.572417,304.238861 213.790841,300.575567 C206.009265,296.912273 202.667917,287.628376 206.327732,279.839403 C206.36839,279.752874 206.456206,279.56492 206.588015,279.281117 C206.813421,278.795783 207.07653,278.225654 207.37417,277.576317 C208.230665,275.707775 209.187586,273.588709 210.219493,271.264048 C213.168669,264.620196 216.117539,257.683234 218.860401,250.820972 C220.258579,247.322923 221.567989,243.930375 222.772418,240.673575 C226.161879,231.508398 228.600504,223.736448 229.829025,217.998757 C230.086141,216.797923 230.279916,215.728798 230.414025,214.816608 C227.226434,212.256312 223.74568,210.114897 219.995682,208.358593 Z" id="Stroke-23" fill="#310046" mask="url(#mask-4)"></path>
                        <path d="M216.145188,96.6949998 C214.416051,88.2633792 219.842996,80.0251249 228.266609,78.2943438 C236.690222,76.5635627 244.920653,81.9956663 246.64979,90.4272869 C246.640396,90.3814756 246.658192,90.4611259 246.705908,90.6574755 C246.811379,91.0914911 246.95233,91.625514 247.131383,92.2507694 C247.676099,94.1529281 248.405396,96.3209307 249.338546,98.6848128 C252.039228,105.52626 255.787738,112.385466 260.705492,118.738301 C272.472603,133.939248 288.981071,143.947125 311.87032,146.684476 C320.408848,147.705608 326.503686,155.461823 325.483524,164.008466 C324.463362,172.55511 316.714513,178.655743 308.175986,177.634611 C276.659964,173.865574 252.777137,159.387162 236.089539,137.829848 C229.247663,128.991401 224.101243,119.574232 220.376776,110.139306 C219.061124,106.806457 218.010971,103.684638 217.196223,100.839521 C216.899463,99.80323 216.651087,98.8622064 216.447545,98.0246304 C216.309853,97.4580249 216.210215,97.012084 216.145188,96.6949998 Z" id="Stroke-24" fill="#310046" mask="url(#mask-4)"></path>
                        <path d="M248.366657,180.995487 L247.052224,185.829153 L185.037504,187.54502 C177.633828,188.32872 170.805463,183.477487 169.111267,176.230387 C169.111267,147.999053 173.137321,119.912787 181.068131,92.8181867 C184.325591,81.6899867 194.983892,74.4060533 206.537754,75.41302 L227.689983,77.25582 C235.307914,77.9193867 236.191571,91.63612 235.18605,106.66582 C233.486185,132.078553 238.126095,157.51622 248.366657,180.837387" id="Fill-25" fill="#310046" mask="url(#mask-4)"></path>
                        <path d="M285.053797,176.951357 L198.383961,176.951357 C196.622314,176.951357 195.180349,175.676357 195.180349,174.118023 L195.180349,171.28469 L288.256842,171.28469 L288.256842,174.118023 C288.256842,175.676357 286.815444,176.951357 285.053797,176.951357" id="Fill-26" fill="#DCDDDC" mask="url(#mask-4)"></path>
                        <path d="M187.185678,79.9086006 C193.665212,74.2496595 203.501034,74.9198743 209.154601,81.4055674 C214.808168,87.8912605 214.138589,97.7364317 207.659056,103.395373 C207.514881,103.521288 207.155692,103.843168 206.613081,104.343541 C205.658147,105.22414 204.580946,106.249837 203.413359,107.402508 C200.064739,110.708346 196.714596,114.320865 193.623274,118.076697 C188.635347,124.136826 184.878635,129.915595 182.869003,134.823796 C181.062614,139.235607 181.044039,141.490667 181.751415,142.510142 C182.368462,143.399434 183.778168,144.493979 186.393526,145.662366 C190.242308,147.381773 195.74504,148.756226 202.948299,149.61212 C211.487598,150.626764 217.588318,158.378345 216.574638,166.925761 C215.560958,175.473178 207.816738,181.579697 199.277439,180.565053 C178.482696,178.094212 164.055263,171.648893 156.174355,160.290879 C148.514922,149.252056 148.621847,136.271423 154.054362,123.003383 C157.428625,114.762292 162.784215,106.524046 169.588702,98.2568701 C173.417045,93.6055876 177.480831,89.2235342 181.546138,85.2101649 C182.973426,83.8011126 184.305751,82.5324887 185.513213,81.4190196 C186.268039,80.7229518 186.835591,80.2143518 187.185678,79.9086006 Z" id="Stroke-27" fill="#310046" mask="url(#mask-4)"></path>
                        <path d="M220.305691,66.7507267 C201.755689,66.7167267 186.817402,51.67286 187.001616,33.21086 C187.184695,14.8128933 201.999417,0.0461266667 220.320995,0.000226666661 C238.79051,-0.0456733333 253.80985,14.93246 253.834223,33.42336 C253.859163,51.9097267 238.894236,66.7847267 220.305691,66.7507267" id="Fill-28" fill="#310046" mask="url(#mask-4)"></path>
                        <path d="M226.86329,40.70786 C226.86329,41.54426 226.185385,42.2219933 225.348206,42.2219933 C224.512161,42.2219933 223.833122,41.54426 223.833122,40.70786 C223.833122,39.8708933 224.512161,39.19316 225.348206,39.19316 C226.185385,39.19316 226.86329,39.8708933 226.86329,40.70786" id="Fill-29" fill="#FFFFFF" mask="url(#mask-4)"></path>
                        <path d="M246.073399,40.5374067 C246.073399,41.3743733 245.394927,42.0521067 244.558315,42.0521067 C243.721703,42.0521067 243.043231,41.3743733 243.043231,40.5374067 C243.043231,39.7010067 243.721703,39.0232733 244.558315,39.0232733 C245.394927,39.0232733 246.073399,39.7010067 246.073399,40.5374067" id="Fill-30" fill="#FFFFFF" mask="url(#mask-4)"></path>
                        <path d="M520.673627,187.165183 L190.976486,187.165183 C189.304396,187.165183 187.948019,185.809717 187.948019,184.13805 L187.948019,179.931117 C187.948019,178.25945 189.304396,176.90455 190.976486,176.90455 L520.673627,176.90455 C522.345717,176.90455 523.702094,178.25945 523.702094,179.931117 L523.702094,184.13805 C523.702094,185.809717 522.345717,187.165183 520.673627,187.165183" id="Fill-31" fill="#FFD200" mask="url(#mask-4)"></path>
                        <path d="M268.485931,187.165183 L149.826452,187.165183 C148.816963,187.165183 147.999056,186.347483 147.999056,185.33825 L147.999056,178.731483 C147.999056,177.72225 148.816963,176.90455 149.826452,176.90455 L268.485931,176.90455 C269.49542,176.90455 270.313894,177.72225 270.313894,178.731483 L270.313894,185.33825 C270.313894,186.347483 269.49542,187.165183 268.485931,187.165183" id="Fill-32" fill="#EABD00" mask="url(#mask-4)"></path>
                        <polygon id="Fill-33" fill="#FFD200" mask="url(#mask-4)" points="487.017052 304.8746 499.119586 304.8746 499.119586 187.164333 487.017052 187.164333"></polygon>
                        <polygon id="Fill-34" fill="#EABD00" mask="url(#mask-4)" points="480.609828 304.8746 487.017052 304.8746 487.017052 187.164333 480.609828 187.164333"></polygon>
                        <polygon id="Fill-35" fill="#FFD200" mask="url(#mask-4)" points="283.6438 304.8746 295.746334 304.8746 295.746334 187.164333 283.6438 187.164333"></polygon>
                        <polygon id="Fill-36" fill="#EABD00" mask="url(#mask-4)" points="277.236575 304.8746 283.824196 304.8746 283.824196 187.164333 277.236575 187.164333"></polygon>
                        <polygon id="Fill-37" fill="#FFD200" mask="url(#mask-4)" points="180.082448 304.8746 192.184416 304.8746 192.184416 187.164333 180.082448 187.164333"></polygon>
                        <polygon id="Fill-38" fill="#EABD00" mask="url(#mask-4)" points="173.675224 304.8746 180.172363 304.8746 180.172363 187.164333 173.675224 187.164333"></polygon>
                        <path d="M439.049593,177.391883 L352.380323,177.391883 C350.61811,177.391883 349.176711,176.116883 349.176711,174.55855 L349.176711,171.725217 L442.252638,171.725217 L442.252638,174.55855 C442.252638,176.116883 440.811239,177.391883 439.049593,177.391883" id="Fill-39" fill="#DCDDDC" mask="url(#mask-4)"></path>
                        <path d="M421.587881,243.100226 C423.308599,245.488378 425.144007,247.964298 427.078529,250.511704 C431.792188,256.718717 436.866781,263.056993 441.94376,269.168794 C443.721884,271.309346 445.371172,273.266134 446.847626,274.995865 C447.360918,275.597209 447.814744,276.125855 448.203625,276.576425 C448.431229,276.840133 448.58304,277.015141 448.653591,277.096087 C454.306748,283.582137 453.636548,293.427266 447.156656,299.085797 C440.676765,304.744328 430.840986,304.073491 425.187829,297.58744 C425.084646,297.469055 424.899848,297.25602 424.638826,296.953591 C424.213331,296.4606 423.72248,295.888825 423.171653,295.243507 C421.607768,293.411346 419.86925,291.348693 417.998967,289.097197 C412.651927,282.660289 407.302501,275.978741 402.287075,269.374358 C400.200303,266.626467 398.210369,263.942094 396.330644,261.33326 C389.901496,252.410368 384.926219,244.619709 381.661269,238.034488 C379.497002,233.669281 378.019004,229.732706 377.319365,225.927167 C376.051658,219.031741 377.189999,212.292839 382.696061,206.966666 C390.229135,199.679259 399.145465,193.517198 409.136663,188.329943 C419.441415,182.979895 430.347111,178.928062 441.237541,175.953874 C445.046439,174.913661 448.597171,174.078378 451.810994,173.426641 C452.961558,173.193316 453.996694,172.998456 454.906445,172.839551 C455.494734,172.736796 455.93693,172.665174 456.223017,172.622244 C464.727235,171.346099 472.654803,177.212163 473.929737,185.724465 C475.20467,194.236767 469.344176,202.171871 460.839958,203.448016 C460.796157,203.454589 460.599196,203.48649 460.259674,203.545794 C459.623075,203.656988 458.864445,203.799796 457.994444,203.976225 C455.435225,204.495214 452.553141,205.173203 449.434388,206.024937 C440.531535,208.456316 431.643946,211.758353 423.474967,215.999545 C418.432105,218.617711 413.8457,221.505923 409.795963,224.656312 C412.190234,229.365611 416.253575,235.696846 421.587881,243.100226 Z" id="Stroke-40" fill="#310046" mask="url(#mask-4)"></path>
                        <path d="M451.716044,218.868443 C452.944582,224.606114 455.383233,232.378069 458.772725,241.543267 C459.977128,244.79998 461.286508,248.192434 462.684652,251.690385 C465.427515,258.55263 468.376385,265.489581 471.325563,272.133428 C472.35747,274.458088 473.314392,276.577153 474.170887,278.445695 C474.468527,279.095032 474.731636,279.665161 474.957043,280.150496 C475.088852,280.4343 475.176669,280.622253 475.217326,280.708783 C478.877141,288.497756 475.535794,297.781653 467.754217,301.444947 C459.972641,305.108241 450.697561,301.763717 447.037745,293.974744 C446.977628,293.8468 446.870194,293.61686 446.718574,293.290399 C446.4716,292.758627 446.186747,292.141381 445.867143,291.444127 C444.960081,289.465268 443.951897,287.232685 442.867537,284.789861 C439.770236,277.812324 436.672628,270.525481 433.772111,263.26881 C432.277438,259.529355 430.871341,255.886319 429.568741,252.364084 C425.706766,241.921288 422.865144,232.865066 421.266859,225.40056 C420.24991,220.651081 419.714679,216.475639 419.761727,212.703547 C419.841008,206.347075 421.423116,200.787165 426.100318,196.262772 C432.710524,189.868287 440.196024,184.815717 448.351817,180.995969 C457.717131,176.609746 467.584739,174.004815 477.580803,172.815286 C484.579503,171.982442 490.938728,171.913817 496.32907,172.30762 C497.586357,172.399474 498.55092,172.500166 499.193553,172.585565 C507.718009,173.718375 513.710994,181.553706 512.579259,190.086265 C511.447524,198.618824 503.619635,204.617506 495.095178,203.484695 C495.046525,203.47823 494.691085,203.441125 494.062217,203.395182 C484.363991,202.686658 472.50392,204.098004 461.549376,209.22854 C457.799425,210.984821 454.31871,213.126206 451.131069,215.686539 C451.265179,216.598669 451.458946,217.667712 451.716044,218.868443 Z" id="Stroke-41" fill="#310046" mask="url(#mask-4)"></path>
                        <path d="M434.990177,97.9950465 C433.023415,89.6157675 438.215336,81.2271283 446.586658,79.2584965 C454.957979,77.2898647 463.338652,82.4867211 465.305414,90.8660001 C465.414656,91.331419 465.568226,92.0464583 465.750098,92.9892213 C466.033173,94.4565855 466.311501,96.1049072 466.568687,97.9129484 C468.165857,109.141214 468.315091,120.994115 465.995214,132.51564 C462.91542,147.811249 455.731525,160.645234 443.449493,169.305299 C429.326967,179.263096 410.182295,182.331936 386.194225,178.304088 C377.713469,176.88008 371.991748,168.844147 373.414403,160.355329 C374.837058,151.866511 382.86536,146.139351 391.346116,147.563359 C407.829821,150.331145 418.773376,148.576923 425.515875,143.822785 C430.582325,140.250429 433.844392,134.422767 435.468381,126.357324 C436.985943,118.820443 436.878929,110.320788 435.738958,102.30668 C435.556007,101.020518 435.36276,99.8760625 435.17426,98.8989424 C435.112673,98.5796963 435.057848,98.3110759 435.011703,98.09622 C434.991429,98.0018211 434.983609,97.9670616 434.990177,97.9950465 Z" id="Stroke-42" fill="#310046" mask="url(#mask-4)"></path>
                        <path d="M433.178344,181.865433 L434.492778,186.698533 L496.507497,188.4144 C503.911174,189.1981 514.208418,189.149963 514.208418,189.149963 C514.208418,160.9186 508.407681,120.782167 500.476303,93.6881333 L500.476303,93.6875667 C497.219411,82.5599333 486.561109,75.2754333 475.007247,76.2824 L453.855019,78.1252 C446.236521,78.7893333 445.353431,92.5055 446.358952,107.5352 C448.058816,132.947933 443.418907,158.3856 433.178344,181.706767" id="Fill-43" fill="#310046" mask="url(#mask-4)"></path>
                        <path d="M428.606128,96.7974886 C432.315053,96.6093101 437.259626,95.558396 443.026026,93.7267078 C447.601514,92.2733109 452.534226,90.3838803 457.659192,88.1639085 C462.347966,86.1328809 466.926634,83.9452799 471.186115,81.7601459 C472.670363,80.9987194 474.003122,80.2950552 475.159443,79.6688832 C475.828245,79.3067129 476.27267,79.0605747 476.468133,78.9501221 C483.956488,74.7186079 493.454062,77.3645694 497.681557,84.8600425 C501.909053,92.3555155 499.265604,101.862117 491.777249,106.093631 C491.422721,106.293968 490.814973,106.63056 489.977237,107.084212 C488.622661,107.817744 487.085783,108.629178 485.389467,109.499396 C480.561623,111.976103 475.383017,114.450343 470.027074,116.770367 C463.998351,119.381818 458.107177,121.638378 452.445478,123.436808 C444.345758,126.009672 436.932297,127.585321 430.182576,127.927779 C420.66019,128.410913 412.322425,126.488536 405.730762,120.943352 C397.977821,114.421252 394.904879,104.658897 395.994131,93.2349659 C396.897857,83.7567958 400.665988,72.4565608 407.341428,58.8055936 C411.121952,51.0745983 420.44793,47.8750212 428.171583,51.6591381 C435.895236,55.443255 439.091775,64.7780978 435.311252,72.5090931 C430.141149,83.081715 427.484838,91.047715 426.993924,96.1963624 C426.973114,96.4146176 426.956886,96.6225208 426.944926,96.8200477 C427.435907,96.8347252 427.991078,96.8286942 428.606128,96.7974886 Z" id="Stroke-44" fill="#310046" mask="url(#mask-4)"></path>
                        <path d="M461.239367,67.6201067 C479.78937,67.5861067 494.727656,52.54224 494.543443,34.08024 C494.359796,15.6822733 479.545074,0.916073333 461.224064,0.870173333 C442.753982,0.823706667 427.735208,15.8024067 427.710835,34.29274 C427.685895,52.7791067 442.650822,67.6541067 461.239367,67.6201067" id="Fill-45" fill="#310046" mask="url(#mask-4)"></path>
                        <path d="M426.796797,212.158867 L518.815055,212.158867 C521.405379,212.158867 523.505411,210.059367 523.505411,207.4697 C523.505411,204.879467 521.405379,202.779967 518.815055,202.779967 L426.796797,202.779967 C424.206473,202.779967 422.106441,204.879467 422.106441,207.4697 C422.106441,210.059367 424.206473,212.158867 426.796797,212.158867" id="Fill-46" fill="#DCDDDC" mask="url(#mask-4)"></path>
                        <path d="M435.900054,212.158867 L423.013621,300.447233 C422.609485,303.214267 424.405141,305.744433 426.772707,305.744433 L427.273201,305.744433 C429.073391,305.744433 430.628718,304.2524 431.004513,302.164233 L447.212455,212.158867 L435.900054,212.158867 Z" id="Fill-47" fill="#DCDDDC" mask="url(#mask-4)"></path>
                        <path d="M512.749901,212.158867 L525.805244,300.098167 C526.243388,303.047667 524.296395,305.744433 521.730444,305.744433 C519.778916,305.744433 518.093222,304.154367 517.685686,301.929067 L501.244218,212.158867 L512.749901,212.158867 Z" id="Fill-48" fill="#DCDDDC" mask="url(#mask-4)"></path>
                        <path d="M479.665692,212.158867 L487.60387,300.098167 C488.041448,303.047667 486.095021,305.744433 483.528504,305.744433 C481.577543,305.744433 479.891849,304.154367 479.484879,301.929067 L468.160575,212.158867 L479.665692,212.158867 Z" id="Fill-49" fill="#DCDDDC" mask="url(#mask-4)"></path>
                        <path d="M329.163148,110.163853 C328.722736,110.038053 328.256252,110.31742 328.121917,110.78662 L325.312239,120.61772 C325.191508,121.039887 324.772635,121.290353 324.377002,121.178153 C323.980234,121.063687 323.756911,120.630187 323.877642,120.20802 L326.68732,110.376353 C326.821088,109.907153 326.572825,109.423787 326.131846,109.298553 C325.691435,109.172187 325.22495,109.450987 325.090616,109.920187 L322.280937,119.751853 C322.160773,120.17402 321.741333,120.424487 321.345133,120.311153 C320.949499,120.198387 320.725609,119.763753 320.84634,119.342153 L323.656019,109.511053 C323.790353,109.041853 323.541523,108.558487 323.101111,108.43212 C322.659566,108.30632 322.193648,108.58512 322.059881,109.054887 L319.250202,118.88712 C319.129471,119.308153 318.710598,119.55862 318.313831,119.445853 L318.313831,119.445287 C317.917631,119.33252 317.694874,118.898453 317.815038,118.476287 L320.625284,108.64462 C320.759051,108.174853 320.510221,107.69262 320.06981,107.566253 C319.628831,107.440453 319.162346,107.71982 319.028579,108.18902 L315.646422,120.021587 C314.979853,122.35682 315.40326,124.69092 316.589027,126.273053 C317.436976,127.40242 317.602484,128.959053 317.154137,130.360987 L308.269385,157.802953 C307.875452,159.033753 308.515948,160.329153 309.681877,160.662353 L309.926172,160.732053 C311.092101,161.065253 312.320379,160.303087 312.636659,159.050753 L319.593689,131.05742 C319.95418,129.63112 320.917191,128.39692 322.233325,127.884653 C324.076025,127.168387 325.669896,125.41002 326.337032,123.074787 L329.718055,111.24222 C329.852956,110.772453 329.604127,110.29022 329.163148,110.163853" id="Fill-50" fill="#DCDDDC" mask="url(#mask-4)"></path>
                        <path d="M322.845197,101.856973 C322.845197,104.500473 320.702087,106.643607 318.057916,106.643607 C315.413746,106.643607 313.269503,104.500473 313.269503,101.856973 C313.269503,99.2134733 315.413746,97.0709067 318.057916,97.0709067 C320.702087,97.0709067 322.845197,99.2134733 322.845197,101.856973" id="Fill-51" fill="#FFD200" mask="url(#mask-4)"></path>
                        <path d="M332.963101,104.72901 C332.963101,108.729677 329.719246,111.972143 325.718131,111.972143 C321.71645,111.972143 318.473162,108.729677 318.473162,104.72901 C318.473162,100.728343 321.71645,97.4858767 325.718131,97.4858767 C329.719246,97.4858767 332.963101,100.728343 332.963101,104.72901" id="Fill-52" fill="#FFD200" mask="url(#mask-4)"></path>
                        <path d="M338.177303,106.908807 C338.177303,109.705873 335.909495,111.97254 333.112286,111.97254 C330.315644,111.97254 328.048402,109.705873 328.048402,106.908807 C328.048402,104.112307 330.315644,101.84564 333.112286,101.84564 C335.909495,101.84564 338.177303,104.112307 338.177303,106.908807" id="Fill-53" fill="#FFD200" mask="url(#mask-4)"></path>
                        <path d="M441.806445,33.57364 C441.806445,34.4106067 441.127973,35.08834 440.291361,35.08834 C439.454749,35.08834 438.776277,34.4106067 438.776277,33.57364 C438.776277,32.7366733 439.454749,32.0595067 440.291361,32.0595067 C441.127973,32.0595067 441.806445,32.7366733 441.806445,33.57364" id="Fill-54" fill="#FFFFFF" mask="url(#mask-4)"></path>
                        <path d="M463.207163,29.5931467 C463.207163,30.4301133 462.528691,31.1078467 461.692079,31.1078467 C460.855467,31.1078467 460.176995,30.4301133 460.176995,29.5931467 C460.176995,28.75618 460.855467,28.0790133 461.692079,28.0790133 C462.528691,28.0790133 463.207163,28.75618 463.207163,29.5931467" id="Fill-55" fill="#FFFFFF" mask="url(#mask-4)"></path>
                    </g>
                </g>
            </g>
        </g>
    </g>
</svg>