<?xml version="1.0" encoding="UTF-8"?>
<svg width="350px" height="200px" viewBox="0 0 350 200" version="1.1" xmlns="http://www.w3.org/2000/svg" xmlns:xlink="http://www.w3.org/1999/xlink">
    <title>Group</title>
    <defs>
        <path d="M159.781474,0 L33.3912793,1 C31.3998161,2.16163879 0,122.432445 0,124.755045 L56.1147541,160.083195 C56.1147541,162.406473 57.3418172,164.552965 59.3332804,165.714603 L106.339186,193.129279 C108.330649,194.29024 110.784105,194.29024 112.775568,193.129279 L159.781474,165.714603 C161.772937,164.552965 163,162.406473 163,160.083195 L163,149.837067 L163,122.952749 L163,105.253845 C163,103.705444 161.927158,68.6208296 159.781474,0 Z" id="path-1"></path>
    </defs>
    <g id="Page-1" stroke="none" stroke-width="1" fill="none" fill-rule="evenodd">
        <g id="Group">
            <g id="Bonhomme" transform="translate(100.000000, 0.000000)">
                <path d="M159.868354,107.441269 L114.13132,80.8452136 C112.193614,79.7182621 109.806386,79.7182621 107.86868,80.8452136 L97.5786142,86.828899 L77.5015025,98.5038536 L62.1316458,107.441269 C60.19394,108.568221 59,110.650617 59,112.903862 L59,166.095973 C59,168.349876 60.19394,170.432272 62.1316458,171.559224 L107.86868,198.155279 C109.806386,199.281574 112.193614,199.281574 114.13132,198.155279 L159.868354,171.559224 C161.80606,170.432272 163,168.349876 163,166.095973 L163,156.155801 L163,130.074266 L163,112.903862 C163,110.650617 161.80606,108.568221 159.868354,107.441269" id="Fill-1" fill="#FFD200"></path>
                <g id="Group-30" transform="translate(0.000000, 6.000000)">
                    <mask id="mask-2" fill="white">
                        <use xlink:href="#path-1"></use>
                    </mask>
                    <g id="Fill-1"></g>
                    <g id="Illustration" mask="url(#mask-2)">
                        <g transform="translate(34.000000, 27.000000)">
                            <path d="M24.4494319,29.619345 C31.7005116,32.3587465 35.3498476,40.4339896 32.5999595,47.6558056 C25.6362742,65.9451786 29.7732968,82.1032211 37.6002632,86.5851056 C44.202789,90.3658332 48.7441581,88.6909079 59.0697745,76 C62.3579649,71.9578387 67.6542879,70.2151178 72.6033742,70.9950101 L88.3873952,68.9892753 C91.26818,68.6452602 93.9806538,68.8753435 96.4759031,69.5917793 C97.9377133,69.6405889 99.41627,69.9199749 100.863196,70.4518076 C108.768394,73.356334 116.975292,79.1677844 125.256813,87.7243298 C132.142166,94.8384017 138.949687,103.743378 144.94358,113.476279 C150.827945,123.031767 155.654352,132.927696 158.901646,142.094395 C162.747125,152.950507 164.235969,162.353757 163.328059,170.04282 C162.487149,177.15849 156.421041,182.395349 149.399681,182.395349 C148.851646,182.395349 148.298795,182.363383 147.741131,182.298252 C140.03934,181.395607 134.530095,174.445362 135.435999,166.774679 C136.164455,160.608778 131.744544,145.994386 121.917032,129.602368 C123.429085,139.780118 124.337844,150.128838 124.689359,160.9148 L125.099383,163.321053 C124.268134,179.685097 112.091895,179.561696 99.6229085,180.407146 L98.8513544,180.46083 C98.7227322,180.470035 98.594103,180.47938 98.465479,180.488886 C98.465479,180.488886 87.6022515,184.385563 72.6712814,180.251937 C62.4022275,177.409345 60.5406707,164.001134 60.5406707,164.001134 C57.4232961,144.159073 57.3937598,129.60064 59.0335893,112.204606 C58.0206563,112.608759 56.954755,113.00005 55.8246666,113.387226 C51.0326633,115.029219 46.1956361,115.802411 41.4798754,115.720097 C35.1736085,115.610021 29.0846321,113.970726 23.6048462,110.832632 C13.0787093,104.80499 5.57873022,93.8886464 2.48664921,80.0947187 C-0.488885946,66.8191576 0.844165794,52.1717139 6.34101534,37.7348247 C9.09049526,30.5134012 17.1979511,26.8799365 24.4494319,29.619345 Z M71.8288467,0.604879704 C89.1770323,0.0878268499 103.657056,13.5623681 104.395661,30.9104104 C105.137475,48.3175901 91.4554335,62.9644907 73.894212,63.5638564 C56.295679,64.1640214 41.6700204,50.5915837 41.125194,33.1544357 C40.5803677,15.713292 54.3402419,1.12632791 71.8288467,0.604879704 Z" id="Combined-Shape" fill="#310046"></path>
                            <path d="M80.316724,29.1026397 C80.3419994,29.8918047 81.005179,30.5103501 81.7971431,30.4847772 C82.5895084,30.4592042 83.2109635,29.7991027 83.1848856,29.0099378 C83.1596102,28.2211725 82.4964305,27.6022275 81.7044665,27.6278004 C80.9121012,27.6537729 80.2910473,28.3138744 80.316724,29.1026397" id="Fill-13" fill="#FFFFFF"></path>
                            <path d="M62.1237365,29.5299476 C62.149012,30.3191125 62.8121916,30.9376579 63.6041557,30.912085 C64.396521,30.8865121 65.017976,30.2264106 64.9918982,29.4372457 C64.9662216,28.6484803 64.3034431,28.0295353 63.511479,28.0551082 C62.7191138,28.0806812 62.0980599,28.7411822 62.1237365,29.5299476" id="Fill-16" fill="#FFFFFF"></path>
                        </g>
                    </g>
                </g>
                <g id="Plus" transform="translate(52.000000, 0.000000)">
                    <path d="M10.5377697,21.1727363 L10.5377697,15.8272637 C10.5377697,15.0022574 9.86657319,14.3333333 9.03777415,14.3333333 C8.20877711,14.3333333 7.53758055,15.0022574 7.53758055,15.8272637 L7.53758055,21.1727363 L2.17256637,21.1727363 C1.34356493,21.1727363 0.672566372,21.8418577 0.672566372,22.6664693 C0.672566372,23.4914757 1.34356493,24.1603997 2.17256637,24.1603997 L7.53758055,24.1603997 L7.53758055,29.5060696 C7.53758055,30.331076 8.20877711,31 9.03777415,31 C9.86657319,31 10.5377697,30.331076 10.5377697,29.5060696 L10.5377697,24.1603997 L15.8982345,24.1603997 C16.7272315,24.1603997 17.3982301,23.4914757 17.3982301,22.6664693 C17.3982301,21.8418577 16.7272315,21.1727363 15.8982345,21.1727363 L10.5377697,21.1727363 Z" id="Fill-1-Copy-7" fill="#FFD200"></path>
                    <path d="M59.1070307,4.23391613 L59.1070307,0.924814028 C59.1070307,0.414095833 58.691528,0 58.178462,0 C57.6652733,0 57.2497707,0.414095833 57.2497707,0.924814028 L57.2497707,4.23391613 L53.9285687,4.23391613 C53.4153801,4.23391613 53,4.64813412 53,5.15860801 C53,5.6693262 53.4153801,6.08342203 53.9285687,6.08342203 L57.2497707,6.08342203 L57.2497707,9.39264629 C57.2497707,9.90336448 57.6652733,10.3174603 58.178462,10.3174603 C58.691528,10.3174603 59.1070307,9.90336448 59.1070307,9.39264629 L59.1070307,6.08342203 L62.4254136,6.08342203 C62.9386022,6.08342203 63.3539823,5.6693262 63.3539823,5.15860801 C63.3539823,4.64813412 62.9386022,4.23391613 62.4254136,4.23391613 L59.1070307,4.23391613 Z" id="Fill-1-Copy-4" fill="#310046"></path>
                    <path d="M129.986117,36.5366596 L129.986117,32.2093722 C129.986117,31.5415099 129.442767,31 128.771835,31 C128.100742,31 127.557392,31.5415099 127.557392,32.2093722 L127.557392,36.5366596 L123.214282,36.5366596 C122.543189,36.5366596 122,37.0783292 122,37.745872 C122,38.4137343 122.543189,38.9552442 123.214282,38.9552442 L127.557392,38.9552442 L127.557392,43.2826913 C127.557392,43.9505536 128.100742,44.4920635 128.771835,44.4920635 C129.442767,44.4920635 129.986117,43.9505536 129.986117,43.2826913 L129.986117,38.9552442 L134.325541,38.9552442 C134.996634,38.9552442 135.539823,38.4137343 135.539823,37.745872 C135.539823,37.0783292 134.996634,36.5366596 134.325541,36.5366596 L129.986117,36.5366596 Z" id="Fill-1-Copy-11" fill="#310046"></path>
                </g>
            </g>
            <path d="M106.960578,67.2330601 C98.6047728,67.2330601 90.8155106,69.7195665 84.2502753,74.0110859 C80.625077,66.6413669 73.3509567,61.4512644 64.907035,61.0287094 C52.3512979,60.4003986 41.8773103,70.1627552 40.8941913,82.6842155 C37.0803336,80.7338947 32.7829655,79.6350774 28.2342397,79.6350774 C13.8009458,79.6350774 1.88094584,90.6784672 0,105 L44.1951666,105 L56.4684794,105 L64.9211562,105 L127.524739,105 L149,105 C146.199198,83.6757956 128.451373,67.2330601 106.960578,67.2330601" id="Fill-1" fill="#FFD200" transform="translate(74.500000, 83.000000) scale(-1, 1) translate(-74.500000, -83.000000) "></path>
            <path d="M323.478486,130.966493 C318.207038,130.966493 313.293007,132.548815 309.15118,135.279782 C306.864143,130.589961 302.2751,127.287168 296.948062,127.01827 C289.026993,126.618435 282.419243,132.830844 281.79902,140.799046 C279.392962,139.557933 276.681871,138.858686 273.812205,138.858686 C264.706637,138.858686 257.186637,145.886297 256,155 L283.881514,155 L291.62441,155 L296.956971,155 L336.451849,155 L350,155 C348.233051,141.430052 337.036437,130.966493 323.478486,130.966493" id="Fill-1-Copy-19" fill="#FFD200" transform="translate(303.000000, 141.000000) scale(-1, 1) translate(-303.000000, -141.000000) "></path>
        </g>
    </g>
</svg>